PathFileType  4	(X/Y/Z) C:\simtk\uwmodels\fbknee\data\invivovalid3\exp\aclc01\Files_W_HJCs
DataRate	CameraRate	NumFrames	NumMarkers	Units	OrigDataRate	OrigDataStartFrame	OrigNumFrames
  200.0      200.0       4         52 mm      200.0         904      1204
Frame#	Time            R.Shoulder                       R.Clavicle                       R.Bicep                          R.Elbow                          R.Forearm                        R.Wrist                          L.Shoulder                       L.Clavicle                       L.Scapula                        L.Bicep                          L.Elbow                          L.Forearm                        L.Wrist                          R.ASIS                           R.PSIS                           S2                               L.PSIS                           L.ASIS                           R.TH1                            R.TH2                            R.TH3                            R.Knee                           R.SH1                            R.SH2                            R.SH3                            R.SH4                            R.Ankle                          R.Heel                           R.MT5                            L.TH1                            L.TH2                            L.TH3                            L.TH4                            L.Knee                           L.SH1                            L.SH2                            L.SH3                            L.Ankle                          L.Heel                           L.MT5                            R.Melb                           R.GTR                            R.Mkn                            R.Man                            R.MT0                            L.Melb                           L.GTR                            L.Mkn                            L.Man                            L.MT0                            R_HJC                            L_HJC                  
                     X1         Y1         Z1         X2         Y2         Z2         X3         Y3         Z3         X4         Y4         Z4         X5         Y5         Z5         X6         Y6         Z6         X7         Y7         Z7         X8         Y8         Z8         X9         Y9         Z9         X10         Y10         Z10         X11         Y11         Z11         X12         Y12         Z12         X13         Y13         Z13         X14         Y14         Z14         X15         Y15         Z15         X16         Y16         Z16         X17         Y17         Z17         X18         Y18         Z18         X19         Y19         Z19         X20         Y20         Z20         X21         Y21         Z21         X22         Y22         Z22         X23         Y23         Z23         X24         Y24         Z24         X25         Y25         Z25         X26         Y26         Z26         X27         Y27         Z27         X28         Y28         Z28         X29         Y29         Z29         X30         Y30         Z30         X31         Y31         Z31         X32         Y32         Z32         X33         Y33         Z33         X34         Y34         Z34         X35         Y35         Z35         X36         Y36         Z36         X37         Y37         Z37         X38         Y38         Z38         X39         Y39         Z39         X40         Y40         Z40         X41         Y41         Z41         X42         Y42         Z42         X43         Y43         Z43         X44         Y44         Z44         X45         Y45         Z45         X46         Y46         Z46         X47         Y47         Z47         X48         Y48         Z48         X49         Y49         Z49         X50         Y50         Z50         X51         Y51         Z51         X52         Y52         Z52         

	904	4.51500	535.301	1930.452	1605.315	615.479	2080.733	1599.879	585.927	1882.975	1396.342	468.643	1850.511	1304.621	549.591	1763.036	1246.734	502.948	1731.120	1132.317	567.769	2306.470	1609.999	625.550	2137.495	1600.167	443.740	2214.044	1575.604	613.726	2354.096	1454.875	518.458	2411.991	1316.652	583.893	2479.418	1254.203	549.406	2503.586	1135.211	658.561	1986.540	1151.378	427.713	2068.102	1226.962	418.728	2119.542	1220.019	432.197	2174.059	1229.141	656.423	2242.462	1140.456	596.130	1905.981	945.388	444.893	1934.819	958.551	441.545	1942.671	884.014	494.592	1913.196	736.517	518.308	1882.437	603.904	519.072	1887.554	529.474	410.015	1929.141	610.077	407.607	1924.421	533.815	481.852	1893.879	333.151	416.000	1943.641	299.427	601.492	1863.865	276.053	599.669	2311.974	907.528	603.199	2298.895	826.422	451.678	2306.266	908.201	446.291	2300.692	831.734	497.736	2312.663	727.250	540.058	2333.990	641.618	428.580	2319.795	642.360	423.530	2335.860	566.437	505.355	2357.707	338.271	421.759	2325.518	297.092	605.019	2384.034	278.684	541.146	1921.631	1273.917	536.644	1892.397	1094.365	511.402	2077.456	693.730	506.443	1984.804	337.120	619.007	1978.725	279.421	593.457	2320.173	1271.567	525.875	2324.351	1112.295	495.476	2146.540	694.180	511.381	2262.038	333.772	624.107	2261.482	279.316	560.485	2015.652	1101.481	552.782	2213.757	1080.575
	905	4.52000	535.674	1930.490	1605.319	615.527	2080.679	1599.805	585.887	1882.934	1396.422	468.643	1850.511	1304.621	549.533	1762.975	1246.803	502.948	1731.120	1132.317	567.665	2306.213	1610.012	625.550	2137.495	1600.167	443.740	2214.044	1575.604	613.819	2353.879	1454.588	518.465	2411.948	1316.702	584.116	2479.838	1254.393	548.814	2504.493	1136.617	658.561	1986.540	1151.378	427.713	2068.102	1226.962	418.489	2120.663	1221.275	432.197	2174.059	1229.141	656.359	2242.472	1140.467	596.222	1905.543	945.380	445.482	1936.883	958.707	441.616	1942.684	883.861	494.592	1913.196	736.517	518.308	1882.437	603.904	518.980	1887.765	529.405	410.015	1929.141	610.077	407.815	1924.761	534.206	481.852	1893.879	333.151	416.000	1943.641	299.427	601.226	1863.847	276.332	599.751	2312.055	907.613	603.423	2298.823	826.529	451.925	2305.279	907.235	446.291	2300.692	831.734	497.637	2312.657	727.279	540.066	2334.017	641.583	428.741	2319.770	642.351	423.523	2335.884	566.300	505.269	2357.651	338.275	421.750	2325.611	297.052	604.854	2384.116	278.622	541.146	1921.631	1273.917	536.720	1892.403	1094.241	510.948	2077.578	694.023	506.331	1984.777	337.158	618.097	1978.483	279.223	593.457	2320.173	1271.567	525.875	2324.351	1112.295	495.476	2146.540	694.180	511.327	2262.006	333.881	624.157	2261.431	279.345	560.170	2015.822	1101.682	552.623	2213.930	1080.755
	906	4.52500	535.301	1930.452	1605.315	615.231	2080.639	1599.682	585.724	1883.119	1396.415	468.632	1851.319	1305.577	549.533	1762.975	1246.803	502.948	1731.120	1132.317	567.665	2306.213	1610.012	625.481	2137.352	1600.161	443.740	2214.044	1575.604	613.898	2353.949	1454.554	518.465	2411.948	1316.702	583.844	2479.898	1254.523	548.814	2504.493	1136.617	658.561	1986.540	1151.378	427.713	2068.102	1226.962	418.489	2120.663	1221.275	432.197	2174.059	1229.141	656.423	2242.462	1140.456	595.753	1906.313	945.309	445.522	1936.984	958.920	441.845	1942.502	883.900	494.484	1912.959	736.519	518.308	1882.437	603.904	519.290	1887.877	529.355	410.015	1929.141	610.077	407.825	1924.769	533.739	481.852	1893.879	333.151	416.000	1943.641	299.427	601.226	1863.847	276.332	599.788	2312.130	907.716	603.199	2298.895	826.422	451.678	2306.266	908.201	446.070	2300.642	831.403	497.736	2312.663	727.250	540.136	2333.940	641.689	428.580	2319.795	642.360	423.606	2335.789	566.393	505.386	2357.652	338.250	421.696	2325.584	297.092	604.830	2384.169	278.569	541.386	1921.384	1274.082	536.644	1892.397	1094.365	510.948	2077.578	694.023	506.331	1984.777	337.158	618.097	1978.483	279.223	592.913	2320.304	1272.080	525.875	2324.351	1112.295	495.476	2146.540	694.180	511.272	2261.974	333.990	624.157	2261.431	279.345	560.175	2015.816	1101.680	552.648	2213.926	1080.754
	907	4.53000	535.301	1930.452	1605.315	615.527	2080.679	1599.805	585.897	1882.913	1396.532	468.602	1851.532	1305.687	549.533	1762.975	1246.803	502.948	1731.120	1132.317	567.665	2306.213	1610.012	625.550	2137.495	1600.167	443.740	2214.044	1575.604	613.819	2353.879	1454.588	518.500	2412.022	1316.579	584.238	2479.883	1254.516	548.814	2504.493	1136.617	658.561	1986.540	1151.378	427.713	2068.102	1226.962	418.728	2119.542	1220.019	432.197	2174.059	1229.141	656.359	2242.472	1140.467	596.069	1905.986	945.274	445.026	1935.307	958.691	441.845	1942.502	883.900	494.592	1913.196	736.517	518.308	1882.437	603.904	519.092	1887.656	529.505	410.015	1929.141	610.077	408.097	1924.695	533.719	481.852	1893.879	333.151	416.000	1943.641	299.427	601.492	1863.865	276.053	599.788	2312.130	907.716	603.199	2298.895	826.422	451.785	2305.975	908.108	446.182	2300.641	832.000	497.637	2312.657	727.279	540.073	2334.156	641.764	428.580	2319.795	642.360	423.579	2335.868	566.417	505.386	2357.652	338.250	421.689	2325.678	297.050	604.612	2384.196	278.573	541.386	1921.384	1274.082	536.644	1892.397	1094.365	510.948	2077.578	694.023	506.443	1984.804	337.120	619.007	1978.725	279.421	593.457	2320.173	1271.567	526.193	2323.888	1112.264	495.476	2146.540	694.180	511.272	2261.974	333.990	624.157	2261.431	279.345	560.479	2015.657	1101.482	552.758	2213.761	1080.576
